<svg width="20" height="20" version="1.1" viewBox="0 0 5.2916 5.2916" xmlns="http://www.w3.org/2000/svg">
<g transform="matrix(0 .072784 -.072784 0 14.124 -5.7428)" fill="#fff">
<path d="m109.77 173.53c-0.896 3.2059-6.8131 9.434-8.0516 10.303 1.9694 0.70774 8.0938-1.8637 9.64-2.9601-0.32514 2.9675 1.5339 12.903 3.8893 12.769 2.5788-0.72015 4.3088-10.93 4.1636-12.878 0.8414 1.2268 7.58 3.7138 9.0928 3.0693-1.9732-1.1212-6.6716-7.4871-7.8878-10.303m-1.3688-4.3097c0.57954-2.6037 0.10921-12.503 7.3182-18.743 3.9538-3.4232 8.0441-3.6951 12.075-2.8508 1.7598 0.37001 4.6761 3.3686 4.4986 7.5082-0.17996 4.2191-0.46042 6.0766-3.3693 9.3173-2.8965 3.2245-7.5775 4.1893-9.6785 4.1098 0.57582-2.4448 2.1643-4.9752 1.7101-6.4665-1.3788-4.2551-7.5539 3.9633-8.5207 7.1519m-11.757 0.036c-0.57336-2.6112-0.48772-11.851-7.6135-18.852-3.8744-3.8044-8.234-3.7175-12.38-2.8496-1.8019 0.37622-4.3435 3.3139-4.1623 7.4523 0.18491 4.2191 0.37974 5.7923 3.2862 9.0975 3.0839 3.5064 7.6694 4.9057 9.6401 4.3842-0.58822-2.4448-2.2177-4.974-1.7523-6.4665 1.4135-4.2551 7.7724 4.0453 8.7639 7.2338m-4.6004-0.0285h25.306v4.2747h-25.306zm12.555-47.499c-13.958 13.411-7.7935 25.824-3.5443 38.575 0.97417 2.9216 1.591 5.6718 1.3961 8.8628l4.3832 0.0347c5e-3 -3.1277 0.26555-6.2467 1.5363-9.1372 6.1554-13.993 9.9615-24.654-3.7639-38.312" fill="#fff"/>
</g>
</svg>
