<?xml version="1.0" encoding="utf-8"?>
<svg xmlns="http://www.w3.org/2000/svg" xmlns:xlink="http://www.w3.org/1999/xlink" style="margin: auto; background: none; display: block; z-index: 1; position: relative; shape-rendering: auto;" width="1512" height="810" preserveAspectRatio="xMidYMid" viewBox="0 0 1512 810">
<g transform="translate(756,405) scale(1,1) translate(-756,-405)"><linearGradient id="lg-0.016248199958099008" x1="0" x2="1" y1="0" y2="0">
  <stop stop-color="#dd1d21" offset="0"></stop>
  <stop stop-color="#fbce07" offset="1"></stop>
</linearGradient><path d="M 1113 405 C 1113 477 985 576 928 621 C 871 666 779 626 709 610 C 639 594 478 619 447 554 C 416 489 432 329 463 264 C 494 199 639 217 709 201 C 779 185 900 108 957 153 C 1014 198 1113 333 1113 405" fill="url(#lg-0.016248199958099008)" opacity="0.23">
  <animate attributeName="d" dur="100s" repeatCount="indefinite" keyTimes="0;0.3333333333333333;0.6666666666666666;1" calcmod="spline" keySplines="0.3 0.1 0.7 0.9;0.3 0.1 0.7 0.9;0.3 0.1 0.7 0.9" begin="-66.66666666666667s" values="M 1113 405 C 1113 477 985 576 928 621 C 871 666 779 626 709 610 C 639 594 478 619 447 554 C 416 489 432 329 463 264 C 494 199 639 217 709 201 C 779 185 900 108 957 153 C 1014 198 1113 333 1113 405;M 1104 405 C 1104 481 1016 607 956 655 C 896 703 771 686 696 669 C 621 652 469 628 436 559 C 403 490 389 313 422 244 C 455 175 617 139 692 122 C 767 105 873 135 933 183 C 993 231 1104 329 1104 405;M 1131 405 C 1131 473 1013 617 960 660 C 907 703 766 669 699 654 C 632 639 464 621 434 560 C 404 499 466 341 496 280 C 526 219 631 167 698 152 C 765 137 902 113 955 156 C 1008 199 1131 337 1131 405;M 1113 405 C 1113 477 985 576 928 621 C 871 666 779 626 709 610 C 639 594 478 619 447 554 C 416 489 432 329 463 264 C 494 199 639 217 709 201 C 779 185 900 108 957 153 C 1014 198 1113 333 1113 405"></animate>
</path><path d="M 1071 405 C 1071 468 996 605 946 644 C 896 683 763 659 701 645 C 639 631 531 583 504 526 C 477 469 456 331 484 274 C 512 217 637 169 699 155 C 761 141 884 142 934 181 C 984 220 1071 342 1071 405" fill="url(#lg-0.016248199958099008)" opacity="0.23">
  <animate attributeName="d" dur="100s" repeatCount="indefinite" keyTimes="0;0.3333333333333333;0.6666666666666666;1" calcmod="spline" keySplines="0.3 0.1 0.7 0.9;0.3 0.1 0.7 0.9;0.3 0.1 0.7 0.9" begin="-66.66666666666667s" values="M 1071 405 C 1071 468 996 605 946 644 C 896 683 763 659 701 645 C 639 631 531 583 504 526 C 477 469 456 331 484 274 C 512 217 637 169 699 155 C 761 141 884 142 934 181 C 984 220 1071 342 1071 405;M 1119 405 C 1119 474 983 579 929 622 C 875 665 777 622 710 607 C 643 592 489 610 459 548 C 429 486 405 312 435 250 C 465 188 629 156 696 141 C 763 126 890 126 944 169 C 998 212 1119 336 1119 405;M 1211 405 C 1211 488 1050 640 985 692 C 920 744 776 692 695 674 C 614 656 423 658 387 583 C 351 508 354 304 390 229 C 426 154 602 106 683 87 C 764 68 904 86 969 138 C 1034 190 1211 322 1211 405;M 1071 405 C 1071 468 996 605 946 644 C 896 683 763 659 701 645 C 639 631 531 583 504 526 C 477 469 456 331 484 274 C 512 217 637 169 699 155 C 761 141 884 142 934 181 C 984 220 1071 342 1071 405"></animate>
</path><path d="M 1156 405 C 1156 481 1038 637 979 684 C 920 731 763 715 689 698 C 615 681 430 646 397 578 C 364 510 375 305 408 237 C 441 169 629 191 703 174 C 777 157 896 108 955 155 C 1014 202 1156 329 1156 405" fill="url(#lg-0.016248199958099008)" opacity="0.23">
  <animate attributeName="d" dur="100s" repeatCount="indefinite" keyTimes="0;0.3333333333333333;0.6666666666666666;1" calcmod="spline" keySplines="0.3 0.1 0.7 0.9;0.3 0.1 0.7 0.9;0.3 0.1 0.7 0.9" begin="-66.66666666666667s" values="M 1156 405 C 1156 481 1038 637 979 684 C 920 731 763 715 689 698 C 615 681 430 646 397 578 C 364 510 375 305 408 237 C 441 169 629 191 703 174 C 777 157 896 108 955 155 C 1014 202 1156 329 1156 405;M 1088 405 C 1088 467 958 559 910 598 C 862 637 764 648 704 634 C 644 620 499 598 472 542 C 445 486 466 334 493 278 C 520 222 642 184 702 170 C 762 156 859 177 907 216 C 955 255 1088 343 1088 405;M 1188 405 C 1188 488 1067 662 1002 714 C 937 766 782 666 701 648 C 620 630 458 641 422 566 C 386 491 368 310 404 235 C 440 160 614 157 695 138 C 776 119 939 42 1004 94 C 1069 146 1188 322 1188 405;M 1156 405 C 1156 481 1038 637 979 684 C 920 731 763 715 689 698 C 615 681 430 646 397 578 C 364 510 375 305 408 237 C 441 169 629 191 703 174 C 777 157 896 108 955 155 C 1014 202 1156 329 1156 405"></animate>
</path></g>
</svg>